<svg width="324" height="157" viewBox="0 0 324 157" version="1.1" xmlns="http://www.w3.org/2000/svg" xmlns:xlink="http://www.w3.org/1999/xlink">
<title>noun_21272_cc</title>
<desc>Created using Figma</desc>
<g id="Canvas" transform="translate(326 63)">
<g id="noun_21272_cc">
<g id="Vector" filter="url(#filter0_d)">
<use xlink:href="#path0_fill" transform="translate(-213 -63)" fill="url(#paint0_diamond)"/>
</g>
<g id="REACT TOPOLOGY">
<use xlink:href="#path1_fill" transform="translate(-328 55)" fill="#154A66"/>
</g>
</g>
</g>
<defs>
<filter id="filter0_d" filterUnits="userSpaceOnUse" x="-217" y="-63" width="105" height="109" color-interpolation-filters="sRGB">
<feFlood flood-opacity="0" result="BackgroundImageFix"/>
<feColorMatrix in="SourceAlpha" type="matrix" values="0 0 0 0 0 0 0 0 0 0 0 0 0 0 0 0 0 0 255 0"/>
<feOffset dx="0" dy="4"/>
<feGaussianBlur stdDeviation="2"/>
<feColorMatrix type="matrix" values="0 0 0 0 0 0 0 0 0 0 0 0 0 0 0 0 0 0 0.04 0"/>
<feBlend mode="normal" in2="BackgroundImageFix" result="effect1_dropShadow"/>
<feBlend mode="normal" in="SourceGraphic" in2="effect1_dropShadow" result="shape"/>
</filter>
<radialGradient id="paint0_diamond" cx="0.5" cy="0.5" r="0.5" gradientUnits="userSpaceOnUse" gradientTransform="matrix(5.9377e-15 100.002 -96.97 6.12336e-15 96.97 -6.12336e-15)">
<stop offset="0" stop-color="#154A66"/>
<stop offset="1" stop-color="#415058"/>
</radialGradient>
<path id="path0_fill" d="M 93.273 62.278L 88.862 36.208C 89.977 35.372 90.709 34.052 90.709 32.551C 90.709 30.02 88.657 27.968 86.125 27.968C 85.508 27.968 84.92 28.094 84.383 28.316L 71.105 14.627C 72.212 13.641 72.924 12.22 72.924 10.62C 72.924 7.649 70.519 5.241 67.545 5.241C 65.691 5.241 64.058 6.18 63.088 7.609L 41.86 3.086C 41.501 1.325 39.944 -7.62939e-09 38.076 -7.62939e-09C 35.942 -7.62939e-09 34.214 1.729 34.214 3.862C 34.214 4.538 34.404 5.166 34.71 5.719L 17.896 23.122C 17.657 23.086 17.417 23.049 17.167 23.049C 14.498 23.049 12.334 25.213 12.334 27.883C 12.334 29.671 13.316 31.215 14.76 32.051L 6.01 54.535C 5.787 54.504 5.565 54.467 5.333 54.467C 2.664 54.467 0.5 56.631 0.5 59.301C 0.5 61.317 1.735 63.041 3.488 63.766L 3.162 87.197C 1.32 87.881 0 89.638 0 91.718C 0 94.388 2.164 96.552 4.833 96.552C 7.275 96.552 9.274 94.735 9.599 92.38L 49.677 89.731C 50.382 91.231 51.895 92.276 53.662 92.276C 54.683 92.276 55.609 91.917 56.357 91.335L 76.253 98.048C 76.918 99.21 78.156 100.002 79.591 100.002C 81.724 100.002 83.453 98.273 83.453 96.14C 83.453 95.872 83.427 95.615 83.374 95.363L 93.22 70.97C 95.341 70.648 96.97 68.832 96.97 66.62C 96.973 64.427 95.369 62.621 93.273 62.278ZM 50.657 39.514L 66.333 59.717C 65.87 60.278 65.521 60.922 65.309 61.635L 35.057 59.563C 34.875 59.118 34.618 58.716 34.319 58.349L 45.687 40.065C 46.284 40.267 46.92 40.382 47.585 40.382C 48.711 40.382 49.762 40.061 50.657 39.514ZM 52.641 37.527C 52.965 36.99 53.199 36.394 53.341 35.764L 81.799 34.001C 81.987 34.563 82.278 35.071 82.653 35.512L 71.047 57.746C 70.887 57.732 70.733 57.697 70.568 57.697C 69.857 57.697 69.183 57.843 68.56 58.088L 52.641 37.527ZM 64.459 15.014C 65.334 15.63 66.397 15.999 67.547 15.999C 67.92 15.999 68.286 15.96 68.639 15.888L 82.263 30.103C 81.993 30.528 81.792 30.999 81.674 31.502L 53.362 33.264C 53.192 32.45 52.867 31.692 52.399 31.037L 64.459 15.014ZM 41.395 5.808L 62.207 10.241C 62.197 10.369 62.168 10.491 62.168 10.62C 62.168 11.433 62.361 12.197 62.686 12.888L 50.354 29.239C 49.673 28.877 48.914 28.645 48.105 28.575C 47.835 28.533 47.56 28.51 47.278 28.51C 47.095 28.51 46.924 28.546 46.747 28.564L 40.208 7.079C 40.698 6.754 41.097 6.315 41.395 5.808ZM 36.964 7.541C 37.137 7.593 37.313 7.637 37.495 7.665L 44.148 29.488C 43.106 30.208 42.349 31.284 41.997 32.531C 41.967 32.617 41.937 32.702 41.911 32.79L 21.92 27.095C 21.736 25.978 21.171 25 20.361 24.281L 36.964 7.541ZM 21.583 29.834L 41.761 35.484C 41.985 36.775 42.626 37.92 43.543 38.779L 32.291 56.876C 31.759 56.674 31.187 56.55 30.583 56.55C 30.46 56.55 30.345 56.576 30.225 56.586L 20.117 31.686C 20.746 31.197 21.257 30.57 21.583 29.834ZM 17.184 32.714C 17.402 32.714 17.61 32.679 17.82 32.65L 27.863 57.39C 26.945 58.017 26.274 58.959 25.959 60.053L 10.078 58.416C 9.86 57.24 9.212 56.228 8.311 55.519L 17.184 32.714ZM 7.293 87.576C 6.875 87.328 6.422 87.136 5.935 87.021L 6.236 64.042C 7.937 63.72 9.306 62.506 9.872 60.905L 25.912 62.557C 26.056 63.13 26.292 63.665 26.621 64.137L 7.293 87.576ZM 49.338 86.99L 9.182 89.642C 9.14 89.553 9.09 89.469 9.042 89.383L 28.536 65.745C 29.16 66.039 29.848 66.216 30.583 66.216C 31.021 66.216 31.436 66.139 31.839 66.03L 49.95 85.492C 49.661 85.944 49.446 86.446 49.338 86.99ZM 55.46 83.837C 54.91 83.591 54.305 83.447 53.663 83.447C 53.105 83.447 52.58 83.559 52.09 83.749L 34.199 64.561C 34.746 63.94 35.149 63.19 35.319 62.346L 65.184 64.393C 65.326 65.039 65.581 65.641 65.927 66.18L 55.46 83.837ZM 75.915 95.019L 57.925 88.948C 58.014 88.598 58.075 88.239 58.075 87.862C 58.076 87.075 57.853 86.346 57.492 85.708L 67.96 68.049C 68.74 68.471 69.618 68.733 70.566 68.733C 70.631 68.733 70.695 68.715 70.757 68.713L 77.736 92.769C 76.866 93.25 76.209 94.05 75.915 95.019ZM 81.447 92.769C 81.142 92.602 80.82 92.466 80.472 92.385L 73.412 67.92C 74.663 67.16 75.589 65.932 75.931 64.465L 88.5 68.352C 88.889 69.263 89.585 69.999 90.447 70.474L 81.447 92.769ZM 88.275 65.601L 75.85 61.707C 75.496 60.467 74.739 59.4 73.704 58.685L 84.999 36.978C 83.542 36.467 85.733 37.134 86.126 37.134C 86.161 37.134 86.194 37.124 86.23 37.124L 90.547 62.713C 89.419 63.296 88.575 64.337 88.275 65.601Z"/>
<path id="path1_fill" d="M 9.7207 28.6484L 9.7207 38L 2.77734 38L 2.77734 12.3008L 11.1973 12.3008C 18.1816 12.3008 21.6738 14.832 21.6738 19.8945C 21.6738 22.8711 20.2207 25.1738 17.3145 26.8027L 24.8027 38L 16.9277 38L 11.4785 28.6484L 9.7207 28.6484ZM 9.7207 23.4277L 11.0215 23.4277C 13.4473 23.4277 14.6602 22.3555 14.6602 20.2109C 14.6602 18.4414 13.4707 17.5566 11.0918 17.5566L 9.7207 17.5566L 9.7207 23.4277ZM 42.3984 38L 27.1406 38L 27.1406 12.3008L 42.3984 12.3008L 42.3984 17.873L 34.084 17.873L 34.084 21.916L 41.7832 21.916L 41.7832 27.4883L 34.084 27.4883L 34.084 32.3398L 42.3984 32.3398L 42.3984 38ZM 62.666 38L 61.4004 33.1836L 53.0508 33.1836L 51.75 38L 44.1211 38L 52.5059 12.1953L 61.7695 12.1953L 70.2598 38L 62.666 38ZM 59.959 27.4883L 58.8516 23.2695C 58.5938 22.332 58.2773 21.1191 57.9023 19.6309C 57.5391 18.1426 57.2988 17.0762 57.1816 16.4316C 57.0762 17.0293 56.8652 18.0137 56.5488 19.3848C 56.2441 20.7559 55.5586 23.457 54.4922 27.4883L 59.959 27.4883ZM 84.498 17.627C 82.8457 17.627 81.5566 18.3066 80.6309 19.666C 79.7051 21.0137 79.2422 22.877 79.2422 25.2559C 79.2422 30.2012 81.123 32.6738 84.8848 32.6738C 86.0215 32.6738 87.123 32.5156 88.1895 32.1992C 89.2559 31.8828 90.3281 31.502 91.4062 31.0566L 91.4062 36.9277C 89.2617 37.877 86.8359 38.3516 84.1289 38.3516C 80.25 38.3516 77.2734 37.2266 75.1992 34.9766C 73.1367 32.7266 72.1055 29.4746 72.1055 25.2207C 72.1055 22.5605 72.6035 20.2227 73.5996 18.207C 74.6074 16.1914 76.0488 14.6445 77.9238 13.5664C 79.8105 12.4766 82.0254 11.9316 84.5684 11.9316C 87.3457 11.9316 90 12.5352 92.5312 13.7422L 90.4043 19.209C 89.4551 18.7637 88.5059 18.3887 87.5566 18.084C 86.6074 17.7793 85.5879 17.627 84.498 17.627ZM 107.771 38L 100.828 38L 100.828 17.9785L 94.5527 17.9785L 94.5527 12.3008L 114.029 12.3008L 114.029 17.9785L 107.771 17.9785L 107.771 38ZM 138.393 38L 131.449 38L 131.449 17.9785L 125.174 17.9785L 125.174 12.3008L 144.65 12.3008L 144.65 17.9785L 138.393 17.9785L 138.393 38ZM 172.371 25.1152C 172.371 29.4395 171.311 32.7266 169.189 34.9766C 167.068 37.2266 163.963 38.3516 159.873 38.3516C 155.842 38.3516 152.748 37.2207 150.592 34.959C 148.447 32.6973 147.375 29.4043 147.375 25.0801C 147.375 20.8027 148.441 17.5391 150.574 15.2891C 152.719 13.0273 155.83 11.8965 159.908 11.8965C 163.998 11.8965 167.098 13.0156 169.207 15.2539C 171.316 17.4922 172.371 20.7793 172.371 25.1152ZM 154.688 25.1152C 154.688 30.084 156.416 32.5684 159.873 32.5684C 161.631 32.5684 162.932 31.9648 163.775 30.7578C 164.631 29.5508 165.059 27.6699 165.059 25.1152C 165.059 22.5488 164.625 20.6562 163.758 19.4375C 162.902 18.207 161.619 17.5918 159.908 17.5918C 156.428 17.5918 154.688 20.0996 154.688 25.1152ZM 195.662 20.4746C 195.662 23.3457 194.812 25.5664 193.113 27.1367C 191.426 28.6953 189.023 29.4746 185.906 29.4746L 183.955 29.4746L 183.955 38L 177.012 38L 177.012 12.3008L 185.906 12.3008C 189.152 12.3008 191.59 13.0098 193.219 14.4277C 194.848 15.8457 195.662 17.8613 195.662 20.4746ZM 183.955 23.8145L 185.221 23.8145C 186.264 23.8145 187.09 23.5215 187.699 22.9355C 188.32 22.3496 188.631 21.541 188.631 20.5098C 188.631 18.7754 187.67 17.9082 185.748 17.9082L 183.955 17.9082L 183.955 23.8145ZM 223.805 25.1152C 223.805 29.4395 222.744 32.7266 220.623 34.9766C 218.502 37.2266 215.396 38.3516 211.307 38.3516C 207.275 38.3516 204.182 37.2207 202.025 34.959C 199.881 32.6973 198.809 29.4043 198.809 25.0801C 198.809 20.8027 199.875 17.5391 202.008 15.2891C 204.152 13.0273 207.264 11.8965 211.342 11.8965C 215.432 11.8965 218.531 13.0156 220.641 15.2539C 222.75 17.4922 223.805 20.7793 223.805 25.1152ZM 206.121 25.1152C 206.121 30.084 207.85 32.5684 211.307 32.5684C 213.064 32.5684 214.365 31.9648 215.209 30.7578C 216.064 29.5508 216.492 27.6699 216.492 25.1152C 216.492 22.5488 216.059 20.6562 215.191 19.4375C 214.336 18.207 213.053 17.5918 211.342 17.5918C 207.861 17.5918 206.121 20.0996 206.121 25.1152ZM 228.445 38L 228.445 12.3008L 235.389 12.3008L 235.389 32.3926L 245.285 32.3926L 245.285 38L 228.445 38ZM 273.445 25.1152C 273.445 29.4395 272.385 32.7266 270.264 34.9766C 268.143 37.2266 265.037 38.3516 260.947 38.3516C 256.916 38.3516 253.822 37.2207 251.666 34.959C 249.521 32.6973 248.449 29.4043 248.449 25.0801C 248.449 20.8027 249.516 17.5391 251.648 15.2891C 253.793 13.0273 256.904 11.8965 260.982 11.8965C 265.072 11.8965 268.172 13.0156 270.281 15.2539C 272.391 17.4922 273.445 20.7793 273.445 25.1152ZM 255.762 25.1152C 255.762 30.084 257.49 32.5684 260.947 32.5684C 262.705 32.5684 264.006 31.9648 264.85 30.7578C 265.705 29.5508 266.133 27.6699 266.133 25.1152C 266.133 22.5488 265.699 20.6562 264.832 19.4375C 263.977 18.207 262.693 17.5918 260.982 17.5918C 257.502 17.5918 255.762 20.0996 255.762 25.1152ZM 288.404 22.9531L 299.496 22.9531L 299.496 36.8047C 296.484 37.8359 293.174 38.3516 289.564 38.3516C 285.604 38.3516 282.539 37.2031 280.371 34.9062C 278.215 32.6094 277.137 29.334 277.137 25.0801C 277.137 20.9316 278.32 17.7031 280.688 15.3945C 283.055 13.0859 286.371 11.9316 290.637 11.9316C 292.254 11.9316 293.777 12.084 295.207 12.3887C 296.648 12.6934 297.902 13.0801 298.969 13.5488L 296.771 18.998C 294.92 18.084 292.887 17.627 290.672 17.627C 288.645 17.627 287.074 18.2891 285.961 19.6133C 284.859 20.9258 284.309 22.8066 284.309 25.2559C 284.309 27.6582 284.807 29.4922 285.803 30.7578C 286.811 32.0117 288.258 32.6387 290.145 32.6387C 291.176 32.6387 292.125 32.5391 292.992 32.3398L 292.992 28.3145L 288.404 28.3145L 288.404 22.9531ZM 313.91 21.8281L 318.34 12.3008L 325.863 12.3008L 317.408 27.9629L 317.408 38L 310.412 38L 310.412 28.1738L 301.957 12.3008L 309.516 12.3008L 313.91 21.8281Z"/>
</defs>
</svg>
