<?xml version="1.0" encoding="UTF-8"?>
<svg width="18px" height="9px" viewBox="0 0 18 9" version="1.1" xmlns="http://www.w3.org/2000/svg" xmlns:xlink="http://www.w3.org/1999/xlink">
    <!-- Generator: Sketch 42 (36781) - http://www.bohemiancoding.com/sketch -->
    <title>icon: instances</title>
    <desc>Created with Sketch.</desc>
    <defs></defs>
    <g id="Page-1" stroke="none" stroke-width="1" fill-rule="evenodd">
        <g id="Project:-topology-of-services" transform="translate(-494.000000, -489.000000)">
            <g id="services-copy" transform="translate(213.000000, 426.000000)">
                <g id="service:-nginx" transform="translate(263.000000, 0.000000)">
                    <g id="metric">
                        <g id="data-centers-&amp;-instanecs" transform="translate(18.000000, 59.000000)">
                            <path d="M4.5,4 C2.015,4 0,6.015 0,8.5 C0,10.985 2.015,13 4.5,13 C6.985,13 9,10.985 9,8.5 C9,6.015 6.985,4 4.5,4 M13.0909091,4 C12.7145455,4 12.3512727,4.047 12,4.12 C14.184,4.576 15.8181818,6.359 15.8181818,8.5 C15.8181818,10.641 14.184,12.424 12,12.88 C12.3512727,12.953 12.7145455,13 13.0909091,13 C15.8018182,13 18,10.985 18,8.5 C18,6.015 15.8018182,4 13.0909091,4 M14,8.5 C14,10.985 11.8018182,13 9.09090909,13 C8.71454545,13 8.35127273,12.953 8,12.88 C10.184,12.424 11.8181818,10.641 11.8181818,8.5 C11.8181818,6.359 10.184,4.576 8,4.12 C8.35127273,4.047 8.71454545,4 9.09090909,4 C11.8018182,4 14,6.015 14,8.5" id="icon:-instances"></path>
                        </g>
                    </g>
                </g>
            </g>
        </g>
    </g>
</svg>
