<?xml version="1.0" encoding="UTF-8"?>
<svg width="9px" height="13px" viewBox="0 0 9 13" version="1.1" xmlns="http://www.w3.org/2000/svg" xmlns:xlink="http://www.w3.org/1999/xlink">
    <!-- Generator: Sketch 42 (36781) - http://www.bohemiancoding.com/sketch -->
    <title>icon:  data center</title>
    <desc>Created with Sketch.</desc>
    <defs></defs>
    <g id="Page-1" stroke="none" stroke-width="1" fill-rule="evenodd">
        <g id="Project:-topology-of-services" transform="translate(-575.000000, -487.000000)">
            <g id="services-copy" transform="translate(213.000000, 426.000000)">
                <g id="service:-nginx" transform="translate(263.000000, 0.000000)">
                    <g id="metric">
                        <g id="data-centers-&amp;-instanecs" transform="translate(18.000000, 59.000000)">
                            <path d="M81,15 L90,15 L90,2 L81,2 L81,15 Z M83,13 L88,13 L88,4 L83,4 L83,13 Z M84,6 L87.001,6 L87.001,5 L84,5 L84,6 Z M84,8 L87.001,8 L87.001,7 L84,7 L84,8 Z M84,10 L87.001,10 L87.001,9 L84,9 L84,10 Z" id="icon:--data-center"></path>
                        </g>
                    </g>
                </g>
            </g>
        </g>
    </g>
</svg>